<svg width="50" height="50" viewBox="0 0 50 50" fill="none" xmlns="http://www.w3.org/2000/svg">
<path fill-rule="evenodd" clip-rule="evenodd" d="M38.0937 12.5228C31.4552 5.18444 20.1026 4.60452 12.7858 11.2234C5.47105 17.8462 4.92259 29.2027 11.5611 36.5372C18.1997 43.8736 29.5542 44.4535 36.871 37.8326C44.1858 31.2138 44.7342 19.8573 38.0937 12.5228" fill="white"/>
<path d="M38.0937 12.5228C31.4552 5.18444 20.1026 4.60452 12.7858 11.2234C5.47105 17.8462 4.92259 29.2027 11.5611 36.5372C18.1997 43.8736 29.5542 44.4535 36.871 37.8326C44.1858 31.2138 44.7342 19.8573 38.0937 12.5228" stroke="#959595" stroke-width="0.5"/>
<path fill-rule="evenodd" clip-rule="evenodd" d="M35.8032 14.598C30.3096 8.53217 20.917 8.05179 14.8671 13.527C8.81373 19.0022 8.3608 28.3928 13.8527 34.4603C19.3464 40.5278 28.7373 41.0082 34.7906 35.5329C40.8405 30.0577 41.2952 20.6655 35.8032 14.598" fill="white"/>
<path d="M35.8032 14.598C30.3096 8.53217 20.917 8.05179 14.8671 13.527C8.81373 19.0022 8.3608 28.3928 13.8527 34.4603C19.3464 40.5278 28.7373 41.0082 34.7906 35.5329C40.8405 30.0577 41.2952 20.6655 35.8032 14.598" stroke="#959595" stroke-width="0.5"/>
<path fill-rule="evenodd" clip-rule="evenodd" d="M26.7592 22.7804L8.57742 6.57623L22.8984 26.2776L41.0782 42.4838L26.7592 22.7804Z" fill="#959595" stroke="#959595" stroke-width="0.5" stroke-linejoin="round"/>
<path fill-rule="evenodd" clip-rule="evenodd" d="M8.57782 6.57545L22.8988 26.2768L24.8292 24.5312L8.57782 6.57545Z" fill="white"/>
<path fill-rule="evenodd" clip-rule="evenodd" d="M41.079 42.4847L26.76 22.7814L24.8296 24.531L41.079 42.4847Z" fill="white"/>
<path fill-rule="evenodd" clip-rule="evenodd" d="M23.0761 22.5929L6.923 40.7354L26.5792 26.4636L42.7322 8.32502L23.0761 22.5929Z" fill="#959595" stroke="#959595" stroke-width="0.5" stroke-linejoin="round"/>
<path fill-rule="evenodd" clip-rule="evenodd" d="M6.92497 40.7354L26.5811 26.4655L24.8296 24.5292L6.92497 40.7354Z" fill="white"/>
<path fill-rule="evenodd" clip-rule="evenodd" d="M42.732 8.32404L23.0759 22.5919L24.8274 24.5302L42.732 8.32404Z" fill="white"/>
<path fill-rule="evenodd" clip-rule="evenodd" d="M24.9145 22.7714L8.53339 23.6953L24.7435 26.2862L41.1246 25.3643L24.9145 22.7714Z" fill="#959595" stroke="#959595" stroke-width="0.5" stroke-linejoin="round"/>
<path fill-rule="evenodd" clip-rule="evenodd" d="M8.53339 23.6949L24.7435 26.2859L24.828 24.5304L8.53339 23.6949Z" fill="white"/>
<path fill-rule="evenodd" clip-rule="evenodd" d="M41.123 25.3639L24.9129 22.7729L24.8284 24.5304L41.123 25.3639Z" fill="white"/>
<path fill-rule="evenodd" clip-rule="evenodd" d="M23.0712 24.4402L24.0383 40.8272L26.586 24.619L25.6189 8.23203L23.0712 24.4402Z" fill="#959595" stroke="#959595" stroke-width="0.5" stroke-linejoin="round"/>
<path fill-rule="evenodd" clip-rule="evenodd" d="M24.0379 40.826L26.5856 24.6198L24.8282 24.5294L24.0379 40.826Z" fill="white"/>
<path fill-rule="evenodd" clip-rule="evenodd" d="M25.6173 8.23203L23.0716 24.4402L24.829 24.5306L25.6173 8.23203Z" fill="white"/>
<path fill-rule="evenodd" clip-rule="evenodd" d="M47.1469 6.93008L47.5479 7.93854C46.9798 8.21375 46.4647 8.30615 46.0008 8.21965C45.5388 8.13119 45.124 7.8717 44.7584 7.44315C44.3063 6.91042 44.1274 6.30888 44.2237 5.63854C44.32 4.9682 44.7014 4.347 45.3737 3.77691C46.0814 3.17341 46.7792 2.87854 47.4653 2.88837C48.1494 2.8982 48.7313 3.18521 49.207 3.74546C49.6238 4.23691 49.8086 4.76572 49.7614 5.33384C49.7339 5.66999 49.5884 6.02974 49.323 6.4111L48.4423 5.78204C48.6212 5.54811 48.7097 5.30042 48.7116 5.04093C48.7116 4.78144 48.6212 4.54555 48.4364 4.32931C48.1868 4.03247 47.8683 3.887 47.483 3.89683C47.0997 3.90469 46.6534 4.12486 46.1463 4.55538C45.6076 5.01341 45.299 5.43016 45.2263 5.8076C45.1516 6.18503 45.238 6.51726 45.4877 6.81016C45.6705 7.02444 45.8986 7.14828 46.1757 7.17777C46.4529 7.21119 46.7773 7.12862 47.1469 6.93008" fill="#959595"/>
<path fill-rule="evenodd" clip-rule="evenodd" d="M4.0535 44.6829C3.57974 45.0839 3.2888 45.483 3.18265 45.8781C3.0765 46.2732 3.15906 46.631 3.43034 46.9514C3.71145 47.2817 4.04957 47.4193 4.44274 47.3682C4.83786 47.3151 5.29197 47.0753 5.80111 46.6408C6.28863 46.2241 6.56581 45.825 6.63265 45.4417C6.69752 45.0584 6.60513 44.7183 6.35154 44.4214C6.10581 44.1325 5.78932 43.9929 5.40402 44.0047C5.01872 44.0185 4.56855 44.2426 4.0535 44.6829V44.6829ZM4.26385 40.596L4.94991 41.4059L3.16889 42.9196L3.72325 43.5683C4.2894 43.1712 4.87718 42.9687 5.48658 42.9687C6.09598 42.9667 6.64641 43.2538 7.13393 43.8278C7.60179 44.3802 7.78658 44.9797 7.68239 45.6304C7.57821 46.2791 7.17521 46.9043 6.46949 47.5038C6.00752 47.897 5.55342 48.1604 5.10718 48.2961C4.65897 48.4317 4.23436 48.4455 3.8353 48.3373C3.43624 48.2312 3.0706 47.9855 2.74231 47.5982C2.40812 47.205 2.20761 46.8355 2.14274 46.4914C2.07983 46.1474 2.11718 45.7602 2.26462 45.3375C2.41205 44.9129 2.65974 44.5256 3.00769 44.1777L2.45726 43.527L0.686068 45.0289L0 44.2209L4.26385 40.596Z" fill="#959595"/>
<path fill-rule="evenodd" clip-rule="evenodd" d="M44.8451 44.7415L43.8602 45.5789L44.3084 46.1097C44.5777 46.4242 44.7488 46.6169 44.8235 46.6857C44.9591 46.8076 45.1026 46.8744 45.254 46.8803C45.4053 46.8882 45.5488 46.8351 45.6884 46.7171C45.8201 46.6051 45.8988 46.4793 45.9223 46.3417C45.9459 46.2021 45.9086 46.0586 45.8142 45.9092C45.7533 45.8207 45.5626 45.5868 45.2402 45.2054L44.8451 44.7415ZM43.1505 46.1824L42.0084 47.1516L42.6434 47.9005C42.893 48.1915 43.0601 48.3684 43.1447 48.4333C43.2685 48.5335 43.4081 48.5827 43.5634 48.5827C43.7167 48.5807 43.87 48.5158 44.0214 48.3881C44.1492 48.2799 44.2337 48.1581 44.2711 48.0224C44.3123 47.8888 44.3045 47.7492 44.2534 47.6057C44.1983 47.4602 44.0155 47.2027 43.7049 46.8351L43.1505 46.1824ZM44.8667 43.33L46.229 44.9302C46.4983 45.2487 46.6851 45.4964 46.7893 45.6752C46.8935 45.8561 46.9524 46.0429 46.9701 46.2453C46.9839 46.4419 46.9524 46.6464 46.8738 46.8528C46.7952 47.0611 46.6635 47.244 46.4806 47.4012C46.2782 47.5703 46.0521 47.6745 45.8005 47.7158C45.5469 47.757 45.3051 47.7256 45.0751 47.6214C45.2068 47.93 45.2382 48.2288 45.1655 48.5158C45.0967 48.8009 44.9394 49.0505 44.6917 49.2609C44.4971 49.424 44.273 49.542 44.0175 49.6128C43.7619 49.6835 43.5182 49.6934 43.2823 49.6403C43.0483 49.5852 42.8282 49.4614 42.6198 49.2688C42.4881 49.1469 42.203 48.8304 41.7607 48.3173L40.6009 46.953L44.8667 43.33Z" fill="#959595"/>
<path fill-rule="evenodd" clip-rule="evenodd" d="M6.99692 1.17143L6.52316 0.218011C7.36059 -0.202673 8.11546 -0.0139552 8.7917 0.778267C9.19076 1.25006 9.38341 1.6963 9.36572 2.12485C9.34999 2.55143 9.19273 2.89151 8.89589 3.14117C8.69538 3.31613 8.46341 3.41639 8.20589 3.44784C7.95034 3.47733 7.66529 3.43604 7.35666 3.32203C7.48444 3.66998 7.51786 3.98647 7.45299 4.26955C7.39008 4.55459 7.22692 4.80818 6.96743 5.02639C6.59196 5.34485 6.17914 5.47263 5.73093 5.41169C5.28076 5.35075 4.83649 5.06374 4.40008 4.55066C4.04623 4.12998 3.83786 3.73681 3.78085 3.36921C3.72187 2.99767 3.84375 2.58092 4.14846 2.11305L5.037 2.63399C4.84632 2.92887 4.76572 3.17066 4.79914 3.36134C4.83059 3.55203 4.92495 3.74075 5.08418 3.92553C5.30042 4.18109 5.51666 4.31673 5.73487 4.33442C5.94914 4.35211 6.13393 4.2951 6.28529 4.16733C6.46025 4.01989 6.54478 3.83314 6.53888 3.611C6.53299 3.3869 6.417 3.14117 6.19093 2.87579L6.03563 2.69493L6.67846 2.14844L6.75709 2.24083C6.96743 2.48656 7.1876 2.6281 7.4176 2.65758C7.6476 2.691 7.85991 2.62023 8.05649 2.4551C8.21179 2.32143 8.29828 2.15827 8.31205 1.96169C8.32974 1.76314 8.25307 1.56656 8.08401 1.36604C7.79504 1.02793 7.43333 0.963053 6.99692 1.17143" fill="#959595"/>
<path fill-rule="evenodd" clip-rule="evenodd" d="M26.6141 26.4932C25.527 27.4742 23.8482 27.3857 22.8673 26.2967C21.8883 25.2076 21.9768 23.5308 23.0639 22.5498C24.1529 21.5709 25.8298 21.6573 26.8107 22.7464C27.7917 23.8355 27.7032 25.5123 26.6141 26.4932" fill="white"/>
</svg>
